<svg xmlns="http://www.w3.org/2000/svg" xmlns:xlink="http://www.w3.org/1999/xlink" width="500" zoomAndPan="magnify" viewBox="0 0 375 374.999991" height="500" preserveAspectRatio="xMidYMid meet" version="1.0"><defs><clipPath id="c5d57093e7"><path d="M 66 351 L 91 351 L 91 374.25 L 66 374.25 Z M 66 351 " clip-rule="nonzero"/></clipPath><clipPath id="f82886a346"><path d="M 304 351 L 329 351 L 329 374.25 L 304 374.25 Z M 304 351 " clip-rule="nonzero"/></clipPath><clipPath id="475f701ef8"><path d="M 206 356 L 226 356 L 226 374.25 L 206 374.25 Z M 206 356 " clip-rule="nonzero"/></clipPath><clipPath id="fb2f6fa437"><path d="M 149 355 L 170 355 L 170 374.25 L 149 374.25 Z M 149 355 " clip-rule="nonzero"/></clipPath><clipPath id="de46c867c7"><path d="M 126.214844 238.632812 L 136.367188 238.632812 L 136.367188 248.785156 L 126.214844 248.785156 Z M 126.214844 238.632812 " clip-rule="nonzero"/></clipPath><clipPath id="c349416309"><path d="M 131.292969 238.632812 C 128.488281 238.632812 126.214844 240.90625 126.214844 243.707031 C 126.214844 246.511719 128.488281 248.785156 131.292969 248.785156 C 134.09375 248.785156 136.367188 246.511719 136.367188 243.707031 C 136.367188 240.90625 134.09375 238.632812 131.292969 238.632812 Z M 131.292969 238.632812 " clip-rule="nonzero"/></clipPath></defs><path fill="#000000" d="M 26.085938 65.164062 C 26.085938 65.164062 23.59375 67.289062 20.105469 62.988281 C 20.105469 62.988281 6.097656 45.976562 0.0820312 40.171875 L 0.0820312 38.050781 C 0.261719 38.292969 0.414062 38.414062 0.414062 38.414062 C 5.394531 43.925781 23.90625 59.183594 23.90625 59.183594 C 28.417969 62.761719 26.085938 65.164062 26.085938 65.164062 " fill-opacity="0.25" fill-rule="nonzero"/><path fill="#000000" d="M 331.773438 263.34375 C 331.773438 263.34375 332.230469 261.566406 330.875 260.179688 C 330.875 260.179688 318.1875 248.210938 317.464844 248.171875 C 317.464844 248.171875 316.582031 247.949219 319.578125 250.765625 C 319.578125 250.765625 326.734375 257.789062 328.867188 260.171875 C 328.976562 260.292969 329.40625 260.722656 328.984375 261.078125 C 328.859375 261.1875 328.628906 261.230469 328.207031 260.839844 C 327.382812 260.070312 325.125 257.765625 325.125 257.765625 L 320.382812 253.199219 C 320.382812 253.199219 316.5 249.390625 316.121094 249.457031 C 316.121094 249.457031 315.523438 249.367188 317.855469 251.683594 L 327.605469 261.894531 C 327.605469 261.894531 327.914062 262.128906 327.609375 262.457031 C 327.285156 262.757812 327.046875 262.457031 327.046875 262.457031 L 316.84375 252.695312 C 314.527344 250.363281 314.613281 250.960938 314.613281 250.960938 C 314.546875 251.34375 318.359375 255.222656 318.359375 255.222656 L 322.921875 259.96875 C 322.921875 259.96875 325.222656 262.230469 325.992188 263.054688 C 326.386719 263.476562 326.339844 263.703125 326.230469 263.835938 C 325.875 264.253906 325.445312 263.824219 325.324219 263.71875 C 322.941406 261.582031 315.921875 254.421875 315.921875 254.421875 C 313.109375 251.425781 313.332031 252.308594 313.332031 252.308594 C 313.367188 253.03125 325.335938 265.726562 325.335938 265.726562 C 326.71875 267.082031 328.496094 266.625 328.496094 266.625 C 330.503906 266.164062 331.511719 267.429688 331.511719 267.429688 C 337.019531 272.414062 352.273438 290.933594 352.273438 290.933594 C 355.757812 295.238281 358.25 293.113281 358.25 293.113281 C 358.25 293.113281 360.585938 290.707031 356.074219 287.132812 C 356.074219 287.132812 337.558594 271.871094 332.582031 266.359375 C 332.582031 266.359375 331.316406 265.355469 331.773438 263.34375 " fill-opacity="0.25" fill-rule="nonzero"/><path fill="#000000" d="M 328.601562 173.871094 C 328.601562 173.871094 329.058594 172.09375 327.703125 170.707031 C 327.703125 170.707031 315.015625 158.734375 314.292969 158.699219 C 314.292969 158.699219 313.410156 158.480469 316.40625 161.292969 C 316.40625 161.292969 323.5625 168.316406 325.695312 170.699219 C 325.804688 170.820312 326.234375 171.253906 325.8125 171.609375 C 325.6875 171.714844 325.457031 171.761719 325.039062 171.371094 C 324.210938 170.597656 321.953125 168.292969 321.953125 168.292969 L 317.210938 163.730469 C 317.210938 163.730469 313.332031 159.914062 312.949219 159.984375 C 312.949219 159.984375 312.351562 159.894531 314.683594 162.210938 L 324.433594 172.421875 C 324.433594 172.421875 324.742188 172.65625 324.4375 172.984375 C 324.113281 173.289062 323.875 172.980469 323.875 172.980469 L 313.671875 163.222656 C 311.355469 160.890625 311.441406 161.492188 311.441406 161.492188 C 311.375 161.875 315.1875 165.753906 315.1875 165.753906 L 319.75 170.496094 C 319.75 170.496094 322.054688 172.757812 322.820312 173.585938 C 323.214844 174.003906 323.167969 174.234375 323.058594 174.359375 C 322.703125 174.78125 322.273438 174.355469 322.15625 174.246094 C 319.769531 172.109375 312.75 164.949219 312.75 164.949219 C 309.9375 161.953125 310.160156 162.839844 310.160156 162.839844 C 310.195312 163.5625 322.160156 176.253906 322.160156 176.253906 C 323.546875 177.609375 325.324219 177.15625 325.324219 177.15625 C 327.332031 176.691406 328.339844 177.957031 328.339844 177.957031 C 333.847656 182.941406 349.101562 201.460938 349.101562 201.460938 C 352.585938 205.765625 355.078125 203.644531 355.078125 203.644531 C 355.078125 203.644531 357.414062 201.238281 352.902344 197.660156 C 352.902344 197.660156 334.386719 182.402344 329.410156 176.890625 C 329.410156 176.890625 328.144531 175.882812 328.601562 173.871094 " fill-opacity="0.25" fill-rule="nonzero"/><path fill="#000000" d="M 224.046875 191.929688 C 224.046875 191.929688 224.5 190.152344 223.144531 188.765625 C 223.144531 188.765625 210.460938 176.796875 209.738281 176.757812 C 209.738281 176.757812 208.855469 176.539062 211.851562 179.351562 C 211.851562 179.351562 219.003906 186.375 221.136719 188.757812 C 221.246094 188.878906 221.675781 189.308594 221.257812 189.664062 C 221.128906 189.773438 220.902344 189.816406 220.476562 189.425781 C 219.652344 188.65625 217.394531 186.355469 217.394531 186.355469 L 212.652344 181.785156 C 212.652344 181.785156 208.773438 177.976562 208.394531 178.042969 C 208.394531 178.042969 207.792969 177.953125 210.125 180.269531 L 219.878906 190.476562 C 219.878906 190.476562 220.183594 190.714844 219.878906 191.042969 C 219.554688 191.347656 219.316406 191.042969 219.316406 191.042969 L 209.113281 181.28125 C 206.796875 178.953125 206.886719 179.546875 206.886719 179.546875 C 206.816406 179.929688 210.628906 183.808594 210.628906 183.808594 L 215.191406 188.554688 C 215.191406 188.554688 217.496094 190.816406 218.265625 191.640625 C 218.65625 192.0625 218.609375 192.292969 218.503906 192.421875 C 218.144531 192.839844 217.71875 192.414062 217.597656 192.304688 C 215.210938 190.167969 208.195312 183.011719 208.195312 183.011719 C 205.378906 180.011719 205.601562 180.894531 205.601562 180.894531 C 205.640625 181.617188 217.605469 194.3125 217.605469 194.3125 C 218.988281 195.667969 220.765625 195.210938 220.765625 195.210938 C 222.777344 194.75 223.785156 196.015625 223.785156 196.015625 C 229.289062 201 244.546875 219.519531 244.546875 219.519531 C 248.027344 223.824219 250.523438 221.699219 250.523438 221.699219 C 250.523438 221.699219 252.855469 219.292969 248.34375 215.71875 C 248.34375 215.71875 229.832031 200.457031 224.851562 194.945312 C 224.851562 194.945312 223.585938 193.941406 224.046875 191.929688 " fill-opacity="0.25" fill-rule="nonzero"/><path fill="#000000" d="M 118.625 76.269531 C 118.625 76.269531 119.078125 74.496094 117.726562 73.105469 C 117.726562 73.105469 105.039062 61.136719 104.316406 61.097656 C 104.316406 61.097656 103.433594 60.878906 106.429688 63.691406 C 106.429688 63.691406 113.582031 70.714844 115.71875 73.097656 C 115.828125 73.222656 116.253906 73.648438 115.835938 74.007812 C 115.707031 74.113281 115.480469 74.160156 115.058594 73.769531 C 114.230469 72.996094 111.972656 70.691406 111.972656 70.691406 L 107.230469 66.128906 C 107.230469 66.128906 103.351562 62.316406 102.972656 62.382812 C 102.972656 62.382812 102.371094 62.296875 104.703125 64.609375 L 114.457031 74.816406 C 114.457031 74.816406 114.761719 75.054688 114.457031 75.382812 C 114.132812 75.683594 113.894531 75.382812 113.894531 75.382812 L 103.691406 65.621094 C 101.375 63.292969 101.464844 63.890625 101.464844 63.890625 C 101.394531 64.273438 105.207031 68.152344 105.207031 68.152344 L 109.769531 72.898438 C 109.769531 72.898438 112.074219 75.15625 112.84375 75.984375 C 113.234375 76.402344 113.1875 76.632812 113.078125 76.761719 C 112.726562 77.179688 112.296875 76.753906 112.175781 76.644531 C 109.792969 74.507812 102.773438 67.351562 102.773438 67.351562 C 99.957031 64.351562 100.183594 65.238281 100.183594 65.238281 C 100.21875 65.960938 112.183594 78.652344 112.183594 78.652344 C 113.566406 80.007812 115.34375 79.550781 115.34375 79.550781 C 117.355469 79.089844 118.363281 80.355469 118.363281 80.355469 C 123.871094 85.339844 139.125 103.859375 139.125 103.859375 C 142.609375 108.164062 145.101562 106.042969 145.101562 106.042969 C 145.101562 106.042969 147.433594 103.636719 142.921875 100.058594 C 142.921875 100.058594 124.410156 84.800781 119.429688 79.289062 C 119.429688 79.289062 118.164062 78.28125 118.625 76.269531 " fill-opacity="0.25" fill-rule="nonzero"/><path fill="#000000" d="M 21.804688 348.671875 C 21.804688 348.671875 19.402344 351.003906 15.828125 346.492188 C 15.828125 346.492188 6.757812 335.484375 0.0820312 328.15625 L 0.0820312 325.824219 C 7.328125 332.554688 19.625 342.691406 19.625 342.691406 C 24.136719 346.265625 21.804688 348.671875 21.804688 348.671875 " fill-opacity="0.25" fill-rule="nonzero"/><path fill="#000000" d="M 41.707031 193.65625 C 37.539062 198.03125 45.804688 207.703125 49.6875 210.132812 C 52.417969 211.839844 54.972656 209.929688 56.710938 210.152344 C 57.078125 210.199219 57.867188 210.894531 57.867188 210.894531 C 63.378906 215.878906 78.628906 234.398438 78.628906 234.398438 C 82.203125 238.914062 84.609375 236.582031 84.609375 236.582031 C 84.609375 236.582031 86.941406 234.175781 82.429688 230.597656 C 82.429688 230.597656 63.914062 215.339844 58.9375 209.828125 C 58.9375 209.828125 58.238281 209.035156 58.191406 208.667969 C 57.96875 206.925781 59.878906 204.371094 58.171875 201.636719 C 55.746094 197.757812 46.078125 189.488281 41.707031 193.65625 " fill-opacity="0.25" fill-rule="nonzero"/><path fill="#000000" d="M 26.683594 209.589844 C 26.648438 210.3125 14.683594 223.007812 14.683594 223.007812 C 13.296875 224.363281 11.519531 223.90625 11.519531 223.90625 C 9.511719 223.445312 8.503906 224.707031 8.503906 224.707031 C 6.550781 226.476562 3.371094 229.945312 0.0820312 233.6875 L 0.0820312 230.632812 C 3.179688 227.871094 5.929688 225.308594 7.433594 223.640625 C 7.433594 223.640625 8.703125 222.632812 8.238281 220.621094 C 8.238281 220.621094 7.785156 218.847656 9.140625 217.460938 C 9.140625 217.460938 21.824219 205.488281 22.550781 205.453125 C 22.550781 205.453125 23.433594 205.230469 20.4375 208.046875 C 20.4375 208.046875 13.28125 215.070312 11.148438 217.449219 C 11.039062 217.570312 10.613281 218.003906 11.03125 218.355469 C 11.160156 218.464844 11.386719 218.511719 11.808594 218.121094 C 12.632812 217.351562 14.890625 215.046875 14.890625 215.046875 L 19.632812 210.480469 C 19.632812 210.480469 23.511719 206.667969 23.894531 206.738281 C 23.894531 206.738281 24.496094 206.644531 22.164062 208.964844 L 12.40625 219.171875 C 12.40625 219.171875 12.105469 219.410156 12.40625 219.734375 C 12.730469 220.042969 12.96875 219.734375 12.96875 219.734375 L 23.175781 209.976562 C 25.488281 207.644531 25.398438 208.242188 25.398438 208.242188 C 25.46875 208.625 21.660156 212.503906 21.660156 212.503906 L 17.09375 217.25 C 17.09375 217.25 14.792969 219.507812 14.023438 220.335938 C 13.628906 220.757812 13.675781 220.984375 13.785156 221.113281 C 14.140625 221.53125 14.570312 221.105469 14.691406 220.996094 C 17.074219 218.863281 24.09375 211.703125 24.09375 211.703125 C 26.90625 208.703125 26.683594 209.589844 26.683594 209.589844 " fill-opacity="0.25" fill-rule="nonzero"/><path fill="#000000" d="M 275.972656 111.851562 C 275.972656 111.851562 277.75 111.398438 279.136719 112.75 C 279.136719 112.75 291.097656 125.441406 291.136719 126.164062 C 291.136719 126.164062 291.359375 127.050781 288.546875 124.054688 C 288.546875 124.054688 281.527344 116.894531 279.140625 114.757812 C 279.023438 114.652344 278.59375 114.222656 278.238281 114.644531 C 278.128906 114.769531 278.082031 115 278.476562 115.417969 C 279.246094 116.246094 281.546875 118.507812 281.546875 118.507812 L 286.113281 123.25 C 286.113281 123.25 289.921875 127.132812 289.851562 127.511719 C 289.851562 127.511719 289.941406 128.113281 287.628906 125.78125 L 277.425781 116.023438 C 277.425781 116.023438 277.1875 115.714844 276.859375 116.019531 C 276.554688 116.347656 276.859375 116.585938 276.859375 116.585938 L 286.617188 126.792969 C 288.945312 129.109375 288.347656 129.019531 288.347656 129.019531 C 287.964844 129.089844 284.089844 125.273438 284.089844 125.273438 L 279.34375 120.710938 C 279.34375 120.710938 277.085938 118.40625 276.261719 117.632812 C 275.839844 117.242188 275.613281 117.289062 275.484375 117.398438 C 275.066406 117.753906 275.492188 118.183594 275.601562 118.304688 C 277.734375 120.6875 284.886719 127.710938 284.886719 127.710938 C 287.886719 130.523438 287.003906 130.304688 287.003906 130.304688 C 286.277344 130.269531 273.59375 118.296875 273.59375 118.296875 C 272.238281 116.910156 272.691406 115.132812 272.691406 115.132812 C 273.15625 113.121094 271.890625 112.113281 271.890625 112.113281 C 266.90625 106.601562 248.394531 91.34375 248.394531 91.34375 C 244.09375 87.859375 246.21875 85.359375 246.21875 85.359375 C 246.21875 85.359375 248.621094 83.027344 252.195312 87.542969 C 252.195312 87.542969 267.449219 106.066406 272.957031 111.046875 C 272.957031 111.046875 273.960938 112.3125 275.972656 111.851562 " fill-opacity="0.25" fill-rule="nonzero"/><path fill="#000000" d="M 66.585938 314.921875 C 66.585938 314.921875 66.132812 313.144531 67.484375 311.757812 C 67.484375 311.757812 80.171875 299.785156 80.894531 299.75 C 80.894531 299.75 81.777344 299.527344 78.78125 302.34375 C 78.78125 302.34375 71.628906 309.363281 69.492188 311.75 C 69.382812 311.871094 68.957031 312.300781 69.375 312.65625 C 69.503906 312.765625 69.734375 312.8125 70.152344 312.417969 C 70.980469 311.648438 73.238281 309.34375 73.238281 309.34375 L 77.980469 304.78125 C 77.980469 304.78125 81.859375 300.964844 82.238281 301.035156 C 82.238281 301.035156 82.839844 300.945312 80.507812 303.261719 L 70.753906 313.472656 C 70.753906 313.472656 70.449219 313.707031 70.753906 314.035156 C 71.078125 314.339844 71.316406 314.03125 71.316406 314.03125 L 81.519531 304.273438 C 83.835938 301.941406 83.746094 302.542969 83.746094 302.542969 C 83.816406 302.921875 80.003906 306.804688 80.003906 306.804688 L 75.441406 311.546875 C 75.441406 311.546875 73.136719 313.808594 72.367188 314.636719 C 71.976562 315.054688 72.023438 315.285156 72.128906 315.410156 C 72.484375 315.832031 72.914062 315.402344 73.035156 315.292969 C 75.417969 313.160156 82.4375 306 82.4375 306 C 85.25 303.003906 85.027344 303.886719 85.027344 303.886719 C 84.992188 304.609375 73.027344 317.304688 73.027344 317.304688 C 71.644531 318.660156 69.867188 318.203125 69.867188 318.203125 C 67.855469 317.742188 66.847656 319.007812 66.847656 319.007812 C 61.339844 323.992188 46.085938 342.511719 46.085938 342.511719 C 42.601562 346.816406 40.109375 344.691406 40.109375 344.691406 C 40.109375 344.691406 37.777344 342.289062 42.289062 338.710938 C 42.289062 338.710938 60.800781 323.449219 65.78125 317.941406 C 65.78125 317.941406 67.046875 316.933594 66.585938 314.921875 " fill-opacity="0.25" fill-rule="nonzero"/><path fill="#000000" d="M 343.734375 93.023438 C 343.734375 93.023438 343.277344 91.25 344.632812 89.859375 C 344.632812 89.859375 357.320312 77.890625 358.042969 77.851562 C 358.042969 77.851562 358.925781 77.632812 355.929688 80.445312 C 355.929688 80.445312 348.773438 87.46875 346.640625 89.851562 C 346.53125 89.972656 346.101562 90.40625 346.523438 90.761719 C 346.648438 90.871094 346.878906 90.914062 347.300781 90.523438 C 348.128906 89.75 350.382812 87.445312 350.382812 87.445312 L 355.125 82.882812 C 355.125 82.882812 359.003906 79.070312 359.386719 79.136719 C 359.386719 79.136719 359.984375 79.046875 357.652344 81.363281 L 347.902344 91.570312 C 347.902344 91.570312 347.59375 91.808594 347.898438 92.136719 C 348.222656 92.441406 348.460938 92.132812 348.460938 92.132812 L 358.667969 82.375 C 360.980469 80.046875 360.894531 80.644531 360.894531 80.644531 C 360.960938 81.027344 357.148438 84.90625 357.148438 84.90625 L 352.585938 89.652344 C 352.585938 89.652344 350.285156 91.910156 349.515625 92.738281 C 349.125 93.15625 349.167969 93.386719 349.277344 93.515625 C 349.632812 93.933594 350.0625 93.507812 350.183594 93.398438 C 352.566406 91.261719 359.585938 84.105469 359.585938 84.105469 C 362.398438 81.105469 362.175781 81.992188 362.175781 81.992188 C 362.140625 82.714844 350.175781 95.40625 350.175781 95.40625 C 348.789062 96.761719 347.011719 96.308594 347.011719 96.308594 C 345.003906 95.84375 343.996094 97.109375 343.996094 97.109375 C 338.488281 102.09375 323.234375 120.613281 323.234375 120.613281 C 319.75 124.917969 317.257812 122.796875 317.257812 122.796875 C 317.257812 122.796875 314.925781 120.390625 319.433594 116.8125 C 319.433594 116.8125 337.949219 101.554688 342.925781 96.042969 C 342.925781 96.042969 344.195312 95.035156 343.734375 93.023438 " fill-opacity="0.25" fill-rule="nonzero"/><path fill="#000000" d="M 68.890625 0.0273438 C 62.15625 7.277344 52.027344 19.578125 52.027344 19.578125 C 48.449219 24.09375 46.050781 21.761719 46.050781 21.761719 C 46.050781 21.761719 43.714844 19.355469 48.226562 15.78125 C 48.226562 15.78125 59.230469 6.707031 66.554688 0.0273438 L 68.890625 0.0273438 " fill-opacity="0.25" fill-rule="nonzero"/><path fill="#000000" d="M 321.542969 218.800781 C 325.710938 223.171875 317.441406 232.847656 313.5625 235.273438 C 310.832031 236.980469 308.28125 235.070312 306.539062 235.292969 C 306.167969 235.339844 305.378906 236.039062 305.378906 236.039062 C 299.871094 241.019531 284.617188 259.539062 284.617188 259.539062 C 281.042969 264.054688 278.640625 261.722656 278.640625 261.722656 C 278.640625 261.722656 276.308594 259.316406 280.820312 255.742188 C 280.820312 255.742188 299.332031 240.480469 304.3125 234.96875 C 304.3125 234.96875 305.007812 234.179688 305.054688 233.8125 C 305.277344 232.070312 303.367188 229.515625 305.078125 226.78125 C 307.5 222.898438 317.167969 214.628906 321.542969 218.800781 " fill-opacity="0.25" fill-rule="nonzero"/><path fill="#000000" d="M 190.769531 21.765625 C 194.9375 26.140625 186.667969 35.8125 182.789062 38.238281 C 180.058594 39.949219 177.507812 38.035156 175.761719 38.257812 C 175.394531 38.304688 174.605469 39 174.605469 39 C 169.097656 43.984375 153.84375 62.507812 153.84375 62.507812 C 150.269531 67.023438 147.863281 64.6875 147.863281 64.6875 C 147.863281 64.6875 145.535156 62.285156 150.046875 58.707031 C 150.046875 58.707031 168.558594 43.445312 173.539062 37.933594 C 173.539062 37.933594 174.234375 37.140625 174.28125 36.777344 C 174.503906 35.035156 172.59375 32.480469 174.300781 29.746094 C 176.726562 25.867188 186.394531 17.59375 190.769531 21.765625 " fill-opacity="0.25" fill-rule="nonzero"/><path fill="#000000" d="M 235.855469 124.0625 C 240.019531 128.4375 231.753906 138.113281 227.875 140.539062 C 225.144531 142.246094 222.59375 140.335938 220.851562 140.558594 C 220.484375 140.605469 219.691406 141.300781 219.691406 141.300781 C 214.183594 146.285156 198.929688 164.804688 198.929688 164.804688 C 195.355469 169.320312 192.953125 166.984375 192.953125 166.984375 C 192.953125 166.984375 190.621094 164.582031 195.132812 161.007812 C 195.132812 161.007812 213.644531 145.746094 218.625 140.230469 C 218.625 140.230469 219.320312 139.441406 219.367188 139.078125 C 219.59375 137.332031 217.683594 134.78125 219.390625 132.042969 C 221.816406 128.164062 231.480469 119.894531 235.855469 124.0625 " fill-opacity="0.25" fill-rule="nonzero"/><path fill="#000000" d="M 307.128906 0.0273438 C 300.410156 7.207031 289.855469 20.019531 289.855469 20.019531 C 286.28125 24.535156 283.878906 22.199219 283.878906 22.199219 C 283.878906 22.199219 281.757812 19.707031 286.058594 16.21875 C 286.058594 16.21875 297.554688 6.742188 304.863281 0.0273438 L 307.128906 0.0273438 " fill-opacity="0.25" fill-rule="nonzero"/><path fill="#000000" d="M 258.640625 240.683594 C 258.640625 240.683594 260.417969 241.136719 261.800781 239.785156 C 261.800781 239.785156 273.769531 227.089844 273.804688 226.363281 C 273.804688 226.363281 274.023438 225.480469 271.210938 228.480469 C 271.210938 228.480469 264.191406 235.636719 261.8125 237.773438 C 261.691406 237.882812 261.257812 238.308594 260.90625 237.890625 C 260.796875 237.761719 260.75 237.53125 261.140625 237.113281 C 261.910156 236.285156 264.214844 234.027344 264.214844 234.027344 L 268.777344 229.28125 C 268.777344 229.28125 272.589844 225.398438 272.519531 225.019531 C 272.519531 225.019531 272.609375 224.421875 270.292969 226.753906 L 260.089844 236.511719 C 260.089844 236.511719 259.855469 236.816406 259.527344 236.511719 C 259.222656 236.1875 259.53125 235.949219 259.53125 235.949219 L 269.285156 225.742188 C 271.613281 223.421875 271.015625 223.511719 271.015625 223.511719 C 270.632812 223.445312 266.753906 227.257812 266.753906 227.257812 L 262.015625 231.824219 C 262.015625 231.824219 259.753906 234.128906 258.925781 234.894531 C 258.507812 235.289062 258.277344 235.242188 258.152344 235.132812 C 257.730469 234.777344 258.160156 234.347656 258.265625 234.230469 C 260.402344 231.847656 267.558594 224.820312 267.558594 224.820312 C 270.554688 222.007812 269.667969 222.226562 269.667969 222.226562 C 268.945312 222.265625 256.257812 234.238281 256.257812 234.238281 C 254.902344 235.621094 255.359375 237.398438 255.359375 237.398438 C 255.820312 239.410156 254.558594 240.417969 254.558594 240.417969 C 249.578125 245.929688 231.066406 261.191406 231.066406 261.191406 C 226.761719 264.675781 228.882812 267.171875 228.882812 267.171875 C 228.882812 267.171875 231.289062 269.503906 234.863281 264.988281 C 234.863281 264.988281 250.117188 246.46875 255.625 241.488281 C 255.625 241.488281 256.628906 240.222656 258.640625 240.683594 " fill-opacity="0.25" fill-rule="nonzero"/><path fill="#000000" d="M 249.941406 25.605469 C 245.566406 29.773438 235.898438 21.503906 233.476562 17.621094 C 231.765625 14.886719 233.679688 12.332031 233.453125 10.589844 C 233.40625 10.222656 232.710938 9.433594 232.710938 9.433594 C 230.769531 7.285156 226.773438 3.65625 222.621094 0.0273438 L 225.925781 0.0273438 C 229.007812 3.523438 231.9375 6.699219 233.777344 8.367188 C 233.777344 8.367188 234.570312 9.0625 234.933594 9.109375 C 236.679688 9.332031 239.230469 7.421875 241.960938 9.128906 C 245.839844 11.554688 254.109375 21.230469 249.941406 25.605469 " fill-opacity="0.25" fill-rule="nonzero"/><path fill="#000000" d="M 111.273438 144.109375 C 115.441406 139.734375 107.175781 130.0625 103.292969 127.636719 C 100.5625 125.925781 98.007812 127.839844 96.265625 127.617188 C 95.902344 127.570312 95.113281 126.871094 95.113281 126.871094 C 89.601562 121.890625 74.351562 103.367188 74.351562 103.367188 C 70.777344 98.855469 68.371094 101.1875 68.371094 101.1875 C 68.371094 101.1875 66.039062 103.589844 70.550781 107.167969 C 70.550781 107.167969 89.0625 122.429688 94.042969 127.9375 C 94.042969 127.9375 94.742188 128.730469 94.789062 129.09375 C 95.011719 130.839844 93.101562 133.390625 94.808594 136.125 C 97.230469 140.007812 106.902344 148.277344 111.273438 144.109375 " fill-opacity="0.25" fill-rule="nonzero"/><path fill="#000000" d="M 327.257812 337.164062 C 331.425781 332.789062 323.160156 323.117188 319.28125 320.691406 C 316.546875 318.980469 313.996094 320.894531 312.25 320.671875 C 311.886719 320.621094 311.097656 319.925781 311.097656 319.925781 C 305.589844 314.941406 290.335938 296.421875 290.335938 296.421875 C 286.761719 291.90625 284.355469 294.242188 284.355469 294.242188 C 284.355469 294.242188 282.027344 296.644531 286.539062 300.222656 C 286.539062 300.222656 305.050781 315.480469 310.03125 320.992188 C 310.03125 320.992188 310.726562 321.785156 310.773438 322.148438 C 310.996094 323.894531 309.085938 326.445312 310.792969 329.179688 C 313.21875 333.0625 322.886719 341.332031 327.257812 337.164062 " fill-opacity="0.25" fill-rule="nonzero"/><path fill="#000000" d="M 152.859375 0.0273438 C 148.902344 3.492188 145.167969 6.902344 143.3125 8.953125 C 143.3125 8.953125 142.046875 9.960938 142.511719 11.972656 C 142.511719 11.972656 142.964844 13.75 141.609375 15.136719 C 141.609375 15.136719 128.921875 27.105469 128.199219 27.144531 C 128.199219 27.144531 127.320312 27.363281 130.3125 24.550781 C 130.3125 24.550781 137.46875 17.527344 139.605469 15.144531 C 139.710938 15.023438 140.140625 14.589844 139.71875 14.238281 C 139.59375 14.128906 139.363281 14.082031 138.941406 14.476562 C 138.113281 15.246094 135.859375 17.550781 135.859375 17.550781 L 131.113281 22.113281 C 131.113281 22.113281 127.234375 25.929688 126.855469 25.859375 C 126.855469 25.859375 126.257812 25.949219 128.589844 23.632812 L 138.339844 13.425781 C 138.339844 13.425781 138.648438 13.1875 138.34375 12.859375 C 138.015625 12.554688 137.78125 12.863281 137.78125 12.863281 L 127.574219 22.621094 C 125.261719 24.953125 125.347656 24.351562 125.347656 24.351562 C 125.28125 23.972656 129.09375 20.089844 129.09375 20.089844 L 133.652344 15.347656 C 133.652344 15.347656 135.960938 13.085938 136.726562 12.261719 C 137.121094 11.839844 137.074219 11.609375 136.964844 11.484375 C 136.609375 11.0625 136.179688 11.488281 136.058594 11.597656 C 133.675781 13.734375 126.65625 20.894531 126.65625 20.894531 C 123.84375 23.890625 124.066406 23.007812 124.066406 23.007812 C 124.101562 22.285156 136.066406 9.59375 136.066406 9.59375 C 137.453125 8.234375 139.230469 8.6875 139.230469 8.6875 C 141.238281 9.152344 142.246094 7.886719 142.246094 7.886719 C 144.003906 6.296875 146.746094 3.332031 149.675781 0.0273438 L 152.859375 0.0273438 " fill-opacity="0.25" fill-rule="nonzero"/><path fill="#000000" d="M 256.398438 340.898438 C 256.398438 340.898438 254.621094 341.355469 253.238281 340 C 253.238281 340 241.269531 327.308594 241.234375 326.585938 C 241.234375 326.585938 241.011719 325.699219 243.824219 328.695312 C 243.824219 328.695312 250.847656 335.855469 253.226562 337.992188 C 253.347656 338.097656 253.777344 338.527344 254.132812 338.105469 C 254.242188 337.980469 254.289062 337.75 253.898438 337.332031 C 253.128906 336.503906 250.824219 334.242188 250.824219 334.242188 L 246.261719 329.5 C 246.261719 329.5 242.449219 325.621094 242.515625 325.238281 C 242.515625 325.238281 242.429688 324.636719 244.746094 326.96875 L 254.949219 336.726562 C 254.949219 336.726562 255.1875 337.03125 255.511719 336.730469 C 255.816406 336.402344 255.507812 336.164062 255.507812 336.164062 L 245.757812 325.957031 C 243.425781 323.640625 244.023438 323.730469 244.023438 323.730469 C 244.402344 323.660156 248.285156 327.476562 248.285156 327.476562 L 253.023438 332.039062 C 253.023438 332.039062 255.285156 334.34375 256.113281 335.117188 C 256.53125 335.507812 256.761719 335.460938 256.886719 335.355469 C 257.308594 334.996094 256.878906 334.566406 256.773438 334.445312 C 254.636719 332.0625 247.480469 325.039062 247.480469 325.039062 C 244.488281 322.226562 245.367188 322.445312 245.367188 322.445312 C 246.089844 322.480469 258.78125 334.453125 258.78125 334.453125 C 260.132812 335.839844 259.679688 337.617188 259.679688 337.617188 C 259.21875 339.628906 260.484375 340.636719 260.484375 340.636719 C 265.460938 346.148438 283.972656 361.40625 283.972656 361.40625 C 288.277344 364.894531 286.15625 367.390625 286.15625 367.390625 C 286.15625 367.390625 283.75 369.722656 280.175781 365.207031 C 280.175781 365.207031 264.925781 346.683594 259.414062 341.703125 C 259.414062 341.703125 258.40625 340.4375 256.398438 340.898438 " fill-opacity="0.25" fill-rule="nonzero"/><path fill="#000000" d="M 119.746094 200.074219 C 119.746094 200.074219 120.203125 201.847656 118.847656 203.234375 C 118.847656 203.234375 106.160156 215.203125 105.4375 215.242188 C 105.4375 215.242188 104.550781 215.460938 107.550781 212.648438 C 107.550781 212.648438 114.707031 205.625 116.839844 203.242188 C 116.949219 203.121094 117.375 202.695312 116.957031 202.335938 C 116.828125 202.230469 116.597656 202.183594 116.179688 202.574219 C 115.351562 203.34375 113.09375 205.648438 113.09375 205.648438 L 108.351562 210.214844 C 108.351562 210.214844 104.472656 214.027344 104.089844 213.957031 C 104.089844 213.957031 103.496094 214.046875 105.824219 211.730469 L 115.578125 201.523438 C 115.578125 201.523438 115.882812 201.285156 115.578125 200.957031 C 115.253906 200.65625 115.015625 200.960938 115.015625 200.960938 L 104.8125 210.71875 C 102.5 213.050781 102.585938 212.453125 102.585938 212.453125 C 102.519531 212.070312 106.328125 208.191406 106.328125 208.191406 L 110.890625 203.445312 C 110.890625 203.445312 113.195312 201.183594 113.964844 200.359375 C 114.355469 199.9375 114.3125 199.707031 114.203125 199.578125 C 113.847656 199.160156 113.417969 199.589844 113.296875 199.695312 C 110.914062 201.832031 103.894531 208.988281 103.894531 208.988281 C 101.082031 211.988281 101.300781 211.105469 101.300781 211.105469 C 101.339844 210.382812 113.304688 197.6875 113.304688 197.6875 C 114.691406 196.335938 116.464844 196.789062 116.464844 196.789062 C 118.476562 197.25 119.480469 195.984375 119.480469 195.984375 C 124.992188 191.003906 140.242188 172.480469 140.242188 172.480469 C 143.730469 168.175781 146.222656 170.300781 146.222656 170.300781 C 146.222656 170.300781 148.554688 172.707031 144.039062 176.28125 C 144.039062 176.28125 125.53125 191.542969 120.550781 197.054688 C 120.550781 197.054688 119.285156 198.058594 119.746094 200.074219 " fill-opacity="0.25" fill-rule="nonzero"/><g clip-path="url(#c5d57093e7)"><path fill="#000000" d="M 80.96875 369.578125 C 78.238281 371.289062 75.6875 369.375 73.945312 369.601562 C 73.578125 369.648438 72.785156 370.34375 72.785156 370.34375 C 71.769531 371.269531 70.417969 372.652344 68.890625 374.296875 L 66.554688 374.296875 C 68.730469 372.3125 70.578125 370.539062 71.71875 369.277344 C 71.71875 369.277344 72.417969 368.484375 72.464844 368.117188 C 72.6875 366.375 70.777344 363.824219 72.484375 361.089844 C 74.910156 357.207031 84.578125 348.9375 88.949219 353.109375 C 93.117188 357.480469 84.851562 367.152344 80.96875 369.578125 " fill-opacity="0.25" fill-rule="nonzero"/></g><path fill="#000000" d="M 141.746094 233.484375 C 145.917969 237.859375 137.652344 247.53125 133.769531 249.960938 C 131.035156 251.667969 128.484375 249.757812 126.742188 249.980469 C 126.378906 250.023438 125.585938 250.722656 125.585938 250.722656 C 120.078125 255.707031 104.824219 274.226562 104.824219 274.226562 C 101.25 278.742188 98.847656 276.40625 98.847656 276.40625 C 98.847656 276.40625 96.515625 274.003906 101.027344 270.429688 C 101.027344 270.429688 119.539062 255.164062 124.519531 249.65625 C 124.519531 249.65625 125.214844 248.863281 125.265625 248.496094 C 125.488281 246.753906 123.578125 244.199219 125.285156 241.464844 C 127.707031 237.585938 137.375 229.3125 141.746094 233.484375 " fill-opacity="0.25" fill-rule="nonzero"/><g clip-path="url(#f82886a346)"><path fill="#000000" d="M 328.796875 355.664062 C 328.757812 356.386719 316.796875 369.078125 316.796875 369.078125 C 315.410156 370.4375 313.632812 369.980469 313.632812 369.980469 C 311.621094 369.519531 310.617188 370.785156 310.617188 370.785156 C 309.6875 371.625 308.484375 372.84375 307.128906 374.296875 L 304.863281 374.296875 C 306.832031 372.488281 308.496094 370.882812 309.550781 369.714844 C 309.550781 369.714844 310.8125 368.710938 310.351562 366.699219 C 310.351562 366.699219 309.898438 364.921875 311.253906 363.535156 C 311.253906 363.535156 323.9375 351.5625 324.660156 351.527344 C 324.660156 351.527344 325.546875 351.304688 322.550781 354.121094 C 322.550781 354.121094 315.398438 361.140625 313.261719 363.527344 C 313.152344 363.648438 312.726562 364.078125 313.144531 364.433594 C 313.273438 364.542969 313.5 364.585938 313.921875 364.195312 C 314.746094 363.425781 317.007812 361.121094 317.007812 361.121094 L 321.75 356.558594 C 321.75 356.558594 325.628906 352.742188 326.007812 352.8125 C 326.007812 352.8125 326.609375 352.722656 324.277344 355.039062 L 314.523438 365.246094 C 314.523438 365.246094 314.21875 365.484375 314.519531 365.808594 C 314.847656 366.113281 315.085938 365.808594 315.085938 365.808594 L 325.289062 356.050781 C 327.605469 353.71875 327.511719 354.320312 327.511719 354.320312 C 327.582031 354.699219 323.769531 358.582031 323.769531 358.582031 L 319.210938 363.324219 C 319.210938 363.324219 316.90625 365.582031 316.132812 366.414062 C 315.742188 366.832031 315.789062 367.058594 315.894531 367.1875 C 316.253906 367.605469 316.683594 367.179688 316.804688 367.070312 C 319.1875 364.9375 326.207031 357.773438 326.207031 357.773438 C 329.019531 354.777344 328.796875 355.664062 328.796875 355.664062 " fill-opacity="0.25" fill-rule="nonzero"/></g><g clip-path="url(#475f701ef8)"><path fill="#000000" d="M 225.925781 374.296875 L 222.621094 374.296875 C 216.113281 368.617188 209.21875 362.929688 209.21875 362.929688 C 204.707031 359.355469 207.042969 356.949219 207.042969 356.949219 C 207.042969 356.949219 209.441406 354.617188 213.015625 359.132812 C 213.015625 359.132812 219.777344 367.339844 225.925781 374.296875 " fill-opacity="0.25" fill-rule="nonzero"/></g><path fill="#000000" d="M 205.292969 243.855469 C 209.460938 239.476562 201.195312 229.804688 197.316406 227.382812 C 194.582031 225.671875 192.03125 227.582031 190.285156 227.363281 C 189.921875 227.316406 189.132812 226.613281 189.132812 226.613281 C 183.621094 221.632812 168.371094 203.109375 168.371094 203.109375 C 164.792969 198.601562 162.390625 200.933594 162.390625 200.933594 C 162.390625 200.933594 160.0625 203.335938 164.574219 206.914062 C 164.574219 206.914062 183.082031 222.175781 188.0625 227.683594 C 188.0625 227.683594 188.761719 228.476562 188.808594 228.839844 C 189.027344 230.585938 187.121094 233.136719 188.828125 235.871094 C 191.25 239.753906 200.921875 248.023438 205.292969 243.855469 " fill-opacity="0.25" fill-rule="nonzero"/><g clip-path="url(#fb2f6fa437)"><path fill="#000000" d="M 166.804688 362.449219 C 166.804688 362.449219 159.519531 368.460938 152.859375 374.296875 L 149.675781 374.296875 C 155.929688 367.242188 163.007812 358.652344 163.007812 358.652344 C 166.492188 354.347656 168.988281 356.46875 168.988281 356.46875 C 168.988281 356.46875 171.316406 358.875 166.804688 362.449219 " fill-opacity="0.25" fill-rule="nonzero"/></g><path fill="#000000" d="M 210.359375 76.921875 C 210.359375 76.921875 210.816406 78.695312 209.464844 80.082031 C 209.464844 80.082031 196.773438 92.054688 196.050781 92.089844 C 196.050781 92.089844 195.167969 92.308594 198.164062 89.496094 C 198.164062 89.496094 205.320312 82.472656 207.453125 80.089844 C 207.5625 79.96875 207.992188 79.539062 207.570312 79.183594 C 207.445312 79.078125 207.210938 79.027344 206.792969 79.421875 C 205.964844 80.191406 203.707031 82.496094 203.707031 82.496094 L 198.964844 87.0625 C 198.964844 87.0625 195.085938 90.875 194.707031 90.804688 C 194.707031 90.804688 194.109375 90.894531 196.4375 88.578125 L 206.191406 78.371094 C 206.191406 78.371094 206.496094 78.132812 206.195312 77.804688 C 205.867188 77.503906 205.628906 77.804688 205.628906 77.804688 L 195.425781 87.566406 C 193.109375 89.898438 193.199219 89.296875 193.199219 89.296875 C 193.132812 88.917969 196.945312 85.039062 196.945312 85.039062 L 201.507812 80.292969 C 201.507812 80.292969 203.8125 78.03125 204.578125 77.207031 C 204.972656 76.785156 204.925781 76.554688 204.816406 76.425781 C 204.460938 76.007812 204.03125 76.433594 203.910156 76.542969 C 201.527344 78.679688 194.507812 85.835938 194.507812 85.835938 C 191.695312 88.835938 191.914062 87.953125 191.914062 87.953125 C 191.953125 87.226562 203.917969 74.535156 203.917969 74.535156 C 205.304688 73.179688 207.078125 73.636719 207.078125 73.636719 C 209.089844 74.097656 210.09375 72.832031 210.09375 72.832031 C 215.605469 67.851562 230.859375 49.328125 230.859375 49.328125 C 234.34375 45.023438 236.835938 47.148438 236.835938 47.148438 C 236.835938 47.148438 239.167969 49.554688 234.65625 53.128906 C 234.65625 53.128906 216.144531 68.390625 211.164062 73.898438 C 211.164062 73.898438 209.902344 74.90625 210.359375 76.921875 " fill-opacity="0.25" fill-rule="nonzero"/><path fill="#000000" d="M 23.464844 113.148438 C 23.464844 113.148438 5.214844 128.199219 0.0820312 133.804688 L 0.0820312 131.730469 C 6.316406 125.566406 19.667969 109.351562 19.667969 109.351562 C 23.246094 104.835938 25.648438 107.167969 25.648438 107.167969 C 25.648438 107.167969 27.976562 109.570312 23.464844 113.148438 " fill-opacity="0.25" fill-rule="nonzero"/><path fill="#000000" d="M 374.164062 38.050781 L 374.164062 40.171875 C 373.902344 39.917969 373.660156 39.6875 373.425781 39.484375 C 373.425781 39.484375 372.421875 38.214844 370.410156 38.675781 C 370.410156 38.675781 368.636719 39.132812 367.246094 37.777344 C 367.246094 37.777344 355.285156 25.085938 355.246094 24.359375 C 355.246094 24.359375 355.027344 23.476562 357.839844 26.476562 C 357.839844 26.476562 364.859375 33.632812 367.242188 35.769531 C 367.363281 35.878906 367.792969 36.308594 368.148438 35.886719 C 368.257812 35.757812 368.300781 35.527344 367.910156 35.105469 C 367.140625 34.28125 364.835938 32.023438 364.835938 32.023438 L 360.277344 27.277344 C 360.277344 27.277344 356.464844 23.398438 356.53125 23.015625 C 356.53125 23.015625 356.441406 22.417969 358.757812 24.746094 L 368.960938 34.507812 C 368.960938 34.507812 369.199219 34.8125 369.523438 34.507812 C 369.828125 34.183594 369.523438 33.945312 369.523438 33.945312 L 359.765625 23.738281 C 357.4375 21.421875 358.039062 21.507812 358.039062 21.507812 C 358.421875 21.441406 362.296875 25.253906 362.296875 25.253906 L 367.039062 29.820312 C 367.039062 29.820312 369.296875 32.121094 370.125 32.894531 C 370.542969 33.285156 370.773438 33.238281 370.902344 33.128906 C 371.320312 32.773438 370.894531 32.34375 370.785156 32.226562 C 368.648438 29.839844 361.496094 22.816406 361.496094 22.816406 C 358.496094 20.003906 359.382812 20.222656 359.382812 20.222656 C 360.105469 20.261719 372.792969 32.230469 372.792969 32.230469 C 374.148438 33.617188 373.691406 35.394531 373.691406 35.394531 C 373.386719 36.710938 373.828125 37.59375 374.164062 38.050781 " fill-opacity="0.25" fill-rule="nonzero"/><path fill="#000000" d="M 55.554688 151.136719 C 55.554688 151.136719 56.007812 149.359375 54.65625 147.972656 C 54.65625 147.972656 41.964844 136.003906 41.246094 135.964844 C 41.246094 135.964844 40.363281 135.746094 43.355469 138.558594 C 43.355469 138.558594 50.511719 145.582031 52.648438 147.964844 C 52.753906 148.085938 53.183594 148.515625 52.761719 148.871094 C 52.636719 148.976562 52.40625 149.023438 51.988281 148.632812 C 51.160156 147.863281 48.902344 145.558594 48.902344 145.558594 L 44.160156 140.992188 C 44.160156 140.992188 40.28125 137.183594 39.898438 137.25 C 39.898438 137.25 39.300781 137.160156 41.632812 139.476562 L 51.382812 149.6875 C 51.382812 149.6875 51.691406 149.921875 51.386719 150.25 C 51.0625 150.550781 50.824219 150.25 50.824219 150.25 L 40.621094 140.488281 C 38.304688 138.15625 38.390625 138.753906 38.390625 138.753906 C 38.324219 139.136719 42.136719 143.015625 42.136719 143.015625 L 46.699219 147.761719 C 46.699219 147.761719 49.003906 150.023438 49.773438 150.847656 C 50.164062 151.269531 50.117188 151.5 50.007812 151.628906 C 49.652344 152.046875 49.222656 151.617188 49.105469 151.511719 C 46.722656 149.375 39.699219 142.21875 39.699219 142.21875 C 36.886719 139.21875 37.109375 140.101562 37.109375 140.101562 C 37.144531 140.824219 49.113281 153.519531 49.113281 153.519531 C 50.496094 154.875 52.273438 154.417969 52.273438 154.417969 C 54.285156 153.957031 55.292969 155.222656 55.292969 155.222656 C 60.800781 160.207031 76.050781 178.726562 76.050781 178.726562 C 79.535156 183.03125 82.03125 180.90625 82.03125 180.90625 C 82.03125 180.90625 84.363281 178.5 79.851562 174.925781 C 79.851562 174.925781 61.335938 159.664062 56.359375 154.152344 C 56.359375 154.152344 55.09375 153.148438 55.554688 151.136719 " fill-opacity="0.25" fill-rule="nonzero"/><path fill="#000000" d="M 125.597656 324.300781 C 125.597656 324.300781 126.054688 322.519531 124.703125 321.132812 C 124.703125 321.132812 112.011719 309.164062 111.289062 309.128906 C 111.289062 309.128906 110.40625 308.90625 113.402344 311.722656 C 113.402344 311.722656 120.558594 318.742188 122.695312 321.125 C 122.800781 321.25 123.230469 321.679688 122.808594 322.035156 C 122.683594 322.140625 122.453125 322.1875 122.035156 321.796875 C 121.207031 321.027344 118.945312 318.71875 118.945312 318.71875 L 114.207031 314.15625 C 114.207031 314.15625 110.324219 310.34375 109.945312 310.414062 C 109.945312 310.414062 109.347656 310.324219 111.679688 312.636719 L 121.429688 322.847656 C 121.429688 322.847656 121.738281 323.085938 121.433594 323.410156 C 121.109375 323.714844 120.871094 323.410156 120.871094 323.410156 L 110.667969 313.648438 C 108.351562 311.316406 108.4375 311.917969 108.4375 311.917969 C 108.371094 312.300781 112.183594 316.179688 112.183594 316.179688 L 116.746094 320.925781 C 116.746094 320.925781 119.046875 323.183594 119.820312 324.011719 C 120.210938 324.429688 120.164062 324.660156 120.054688 324.789062 C 119.699219 325.207031 119.269531 324.78125 119.148438 324.671875 C 116.769531 322.539062 109.746094 315.378906 109.746094 315.378906 C 106.933594 312.378906 107.15625 313.265625 107.15625 313.265625 C 107.191406 313.988281 119.160156 326.679688 119.160156 326.679688 C 120.542969 328.035156 122.320312 327.582031 122.320312 327.582031 C 124.328125 327.121094 125.335938 328.382812 125.335938 328.382812 C 130.847656 333.367188 146.097656 351.886719 146.097656 351.886719 C 149.582031 356.191406 152.078125 354.070312 152.078125 354.070312 C 152.078125 354.070312 154.40625 351.664062 149.894531 348.085938 C 149.894531 348.085938 131.382812 332.828125 126.40625 327.316406 C 126.40625 327.316406 125.140625 326.3125 125.597656 324.300781 " fill-opacity="0.25" fill-rule="nonzero"/><path fill="#000000" d="M 374.164062 325.824219 L 374.164062 328.15625 C 372.179688 325.980469 370.40625 324.132812 369.148438 322.988281 C 369.148438 322.988281 368.355469 322.289062 367.988281 322.242188 C 366.246094 322.023438 363.695312 323.929688 360.964844 322.222656 C 357.082031 319.796875 348.816406 310.125 352.984375 305.75 C 357.355469 301.582031 367.023438 309.851562 369.449219 313.734375 C 371.15625 316.46875 369.246094 319.019531 369.46875 320.765625 C 369.515625 321.128906 370.214844 321.917969 370.214844 321.917969 C 371.136719 322.941406 372.519531 324.292969 374.164062 325.824219 " fill-opacity="0.25" fill-rule="nonzero"/><path fill="#000000" d="M 256.859375 155.5625 C 252.691406 159.9375 260.957031 169.613281 264.835938 172.039062 C 267.570312 173.746094 270.121094 171.835938 271.863281 172.058594 C 272.230469 172.101562 273.019531 172.800781 273.019531 172.800781 C 278.527344 177.785156 293.78125 196.304688 293.78125 196.304688 C 297.359375 200.820312 299.757812 198.484375 299.757812 198.484375 C 299.757812 198.484375 302.089844 196.082031 297.582031 192.507812 C 297.582031 192.507812 279.070312 177.242188 274.085938 171.734375 C 274.085938 171.734375 273.390625 170.941406 273.34375 170.574219 C 273.121094 168.832031 275.03125 166.28125 273.324219 163.542969 C 270.898438 159.664062 261.230469 151.394531 256.859375 155.5625 " fill-opacity="0.25" fill-rule="nonzero"/><path fill="#000000" d="M 50.15625 76.304688 C 54.53125 80.472656 64.199219 72.203125 66.621094 68.320312 C 68.332031 65.585938 66.417969 63.035156 66.644531 61.289062 C 66.691406 60.925781 67.386719 60.132812 67.386719 60.132812 C 72.367188 54.621094 90.878906 39.363281 90.878906 39.363281 C 95.390625 35.785156 93.058594 33.378906 93.058594 33.378906 C 93.058594 33.378906 90.65625 31.046875 87.082031 35.5625 C 87.082031 35.5625 71.828125 54.082031 66.320312 59.066406 C 66.320312 59.066406 65.527344 59.761719 65.160156 59.808594 C 63.417969 60.035156 60.867188 58.121094 58.132812 59.832031 C 54.257812 62.253906 45.992188 71.925781 50.15625 76.304688 " fill-opacity="0.25" fill-rule="nonzero"/><path fill="#000000" d="M 140.609375 144.109375 C 144.980469 148.277344 154.648438 140.007812 157.074219 136.125 C 158.78125 133.390625 156.871094 130.839844 157.09375 129.09375 C 157.140625 128.730469 157.839844 127.9375 157.839844 127.9375 C 162.816406 122.429688 181.332031 107.167969 181.332031 107.167969 C 185.84375 103.589844 183.511719 101.1875 183.511719 101.1875 C 183.511719 101.1875 181.105469 98.855469 177.53125 103.367188 C 177.53125 103.367188 162.28125 121.890625 156.769531 126.871094 C 156.769531 126.871094 155.980469 127.570312 155.617188 127.617188 C 153.875 127.839844 151.320312 125.925781 148.589844 127.636719 C 144.707031 130.0625 136.441406 139.734375 140.609375 144.109375 " fill-opacity="0.25" fill-rule="nonzero"/><path fill="#000000" d="M 374.164062 230.632812 L 374.164062 233.6875 C 368.175781 240.5 361.820312 248.210938 361.820312 248.210938 C 358.339844 252.519531 355.847656 250.394531 355.847656 250.394531 C 355.847656 250.394531 353.515625 247.988281 358.023438 244.414062 C 358.023438 244.414062 367.027344 236.992188 374.164062 230.632812 " fill-opacity="0.25" fill-rule="nonzero"/><path fill="#000000" d="M 170.410156 269.847656 C 170.410156 269.847656 169.953125 268.074219 171.308594 266.6875 C 171.308594 266.6875 183.996094 254.71875 184.71875 254.679688 C 184.71875 254.679688 185.605469 254.457031 182.605469 257.273438 C 182.605469 257.273438 175.453125 264.296875 173.316406 266.679688 C 173.207031 266.800781 172.78125 267.230469 173.199219 267.585938 C 173.328125 267.695312 173.558594 267.738281 173.980469 267.347656 C 174.804688 266.578125 177.0625 264.273438 177.0625 264.273438 L 181.804688 259.707031 C 181.804688 259.707031 185.683594 255.898438 186.066406 255.964844 C 186.066406 255.964844 186.664062 255.875 184.332031 258.191406 L 174.578125 268.398438 C 174.578125 268.398438 174.273438 268.636719 174.574219 268.964844 C 174.90625 269.265625 175.140625 268.964844 175.140625 268.964844 L 185.34375 259.203125 C 187.660156 256.875 187.570312 257.46875 187.570312 257.46875 C 187.636719 257.851562 183.828125 261.730469 183.828125 261.730469 L 179.265625 266.476562 C 179.265625 266.476562 176.960938 268.738281 176.191406 269.5625 C 175.800781 269.984375 175.84375 270.214844 175.953125 270.34375 C 176.308594 270.761719 176.738281 270.332031 176.859375 270.226562 C 179.242188 268.089844 186.261719 260.933594 186.261719 260.933594 C 189.074219 257.933594 188.855469 258.816406 188.855469 258.816406 C 188.816406 259.539062 176.851562 272.234375 176.851562 272.234375 C 175.464844 273.589844 173.691406 273.132812 173.691406 273.132812 C 171.679688 272.671875 170.675781 273.9375 170.675781 273.9375 C 165.167969 278.921875 149.914062 297.441406 149.914062 297.441406 C 146.425781 301.746094 143.933594 299.621094 143.933594 299.621094 C 143.933594 299.621094 141.605469 297.214844 146.117188 293.640625 C 146.117188 293.640625 164.625 278.378906 169.609375 272.867188 C 169.609375 272.867188 170.871094 271.863281 170.410156 269.847656 " fill-opacity="0.25" fill-rule="nonzero"/><path fill="#000000" d="M 374.164062 131.730469 L 374.164062 133.804688 L 374.054688 133.921875 C 374.054688 133.921875 373.359375 134.710938 373.3125 135.078125 C 373.089844 136.820312 375 139.375 373.292969 142.109375 C 370.871094 145.992188 361.203125 154.261719 356.828125 150.089844 C 352.660156 145.714844 360.925781 136.042969 364.804688 133.613281 C 367.539062 131.90625 370.085938 133.820312 371.832031 133.597656 C 372.199219 133.550781 372.988281 132.851562 372.988281 132.851562 C 373.339844 132.53125 373.734375 132.15625 374.164062 131.730469 " fill-opacity="0.25" fill-rule="nonzero"/><path fill="#000000" d="M 284.898438 76.304688 C 280.730469 71.925781 288.996094 62.253906 292.878906 59.832031 C 295.613281 58.121094 298.164062 60.035156 299.90625 59.808594 C 300.269531 59.761719 301.0625 59.066406 301.0625 59.066406 C 306.570312 54.082031 321.824219 35.5625 321.824219 35.5625 C 325.398438 31.046875 327.800781 33.378906 327.800781 33.378906 C 327.800781 33.378906 330.132812 35.785156 325.621094 39.363281 C 325.621094 39.363281 307.109375 54.621094 302.128906 60.132812 C 302.128906 60.132812 301.429688 60.925781 301.382812 61.289062 C 301.160156 63.035156 303.070312 65.585938 301.363281 68.320312 C 298.9375 72.203125 289.269531 80.472656 284.898438 76.304688 " fill-opacity="0.25" fill-rule="nonzero"/><path fill="#000000" d="M 193.496094 330.3125 C 189.328125 325.9375 197.59375 316.265625 201.472656 313.839844 C 204.207031 312.128906 206.757812 314.042969 208.503906 313.820312 C 208.867188 313.773438 209.65625 313.074219 209.65625 313.074219 C 215.164062 308.09375 230.417969 289.570312 230.417969 289.570312 C 233.992188 285.058594 236.398438 287.390625 236.398438 287.390625 C 236.398438 287.390625 238.726562 289.792969 234.214844 293.371094 C 234.214844 293.371094 215.703125 308.632812 210.722656 314.144531 C 210.722656 314.144531 210.027344 314.933594 209.980469 315.300781 C 209.757812 317.042969 211.667969 319.597656 209.960938 322.332031 C 207.539062 326.214844 197.867188 334.484375 193.496094 330.3125 " fill-opacity="0.25" fill-rule="nonzero"/><path fill="#000000" d="M 12.230469 298.601562 C 8.0625 294.226562 16.328125 284.554688 20.210938 282.125 C 22.941406 280.417969 25.496094 282.328125 27.238281 282.105469 C 27.601562 282.058594 28.390625 281.363281 28.390625 281.363281 C 33.902344 276.378906 49.152344 257.859375 49.152344 257.859375 C 52.730469 253.34375 55.132812 255.679688 55.132812 255.679688 C 55.132812 255.679688 57.464844 258.082031 52.953125 261.65625 C 52.953125 261.65625 34.441406 276.921875 29.460938 282.429688 C 29.460938 282.429688 28.761719 283.222656 28.714844 283.589844 C 28.496094 285.332031 30.402344 287.886719 28.695312 290.617188 C 26.273438 294.5 16.605469 302.773438 12.230469 298.601562 " fill-opacity="0.25" fill-rule="nonzero"/><g clip-path="url(#de46c867c7)"><g clip-path="url(#c349416309)"><path fill="#000000" d="M 126.214844 238.632812 L 136.367188 238.632812 L 136.367188 248.785156 L 126.214844 248.785156 Z M 126.214844 238.632812 " fill-opacity="0" fill-rule="nonzero"/></g></g>

 </svg>